<?xml version="1.0" encoding="UTF-8" standalone="no"?>
<!-- Created with Inkscape (http://www.inkscape.org/) -->

<svg
   width="42.043449mm"
   height="42.071552mm"
   viewBox="0 0 42.043449 42.071552"
   version="1.1"
   id="svg1"
   xml:space="preserve"
   inkscape:version="1.3 (0e150ed6c4, 2023-07-21)"
   sodipodi:docname="close.svg"
   xmlns:inkscape="http://www.inkscape.org/namespaces/inkscape"
   xmlns:sodipodi="http://sodipodi.sourceforge.net/DTD/sodipodi-0.dtd"
   xmlns="http://www.w3.org/2000/svg"
   xmlns:svg="http://www.w3.org/2000/svg"><sodipodi:namedview
     id="namedview1"
     pagecolor="#ffffff"
     bordercolor="#000000"
     borderopacity="0.25"
     inkscape:showpageshadow="2"
     inkscape:pageopacity="0.0"
     inkscape:pagecheckerboard="0"
     inkscape:deskcolor="#d1d1d1"
     inkscape:document-units="mm"
     inkscape:zoom="2.9255612"
     inkscape:cx="-4.1017772"
     inkscape:cy="126.30056"
     inkscape:window-width="1920"
     inkscape:window-height="1017"
     inkscape:window-x="-8"
     inkscape:window-y="-8"
     inkscape:window-maximized="1"
     inkscape:current-layer="layer1" /><defs
     id="defs1" /><g
     inkscape:label="Layer 1"
     inkscape:groupmode="layer"
     id="layer1"
     transform="translate(-241.61129,-103.77644)"><path
       style="fill:#000000;stroke-width:0.509556"
       d="m 253.6483,135.14041 c -0.58948,-0.30736 -0.89027,-0.60824 -1.09747,-1.09777 -0.24522,-0.57936 -0.23192,-1.3037 0.0336,-1.83109 0.11948,-0.23731 1.8177,-2.04015 3.77382,-4.00631 l 3.55659,-3.57484 -3.51343,-3.50321 c -1.93238,-1.92676 -3.6306,-3.7283 -3.77382,-4.00341 -0.90794,-1.74409 0.76637,-3.67963 2.65622,-3.07064 0.40287,0.12982 1.34896,0.99044 4.16459,3.7884 l 3.6433,3.62044 3.50216,-3.50616 c 3.51046,-3.51446 4.16393,-4.04263 4.99403,-4.03642 0.60088,0.005 1.46412,0.45334 1.81229,0.94229 0.44151,0.62004 0.50793,1.55972 0.15785,2.23295 -0.15139,0.29114 -1.85583,2.10532 -3.78763,4.0315 l -3.51238,3.50216 3.62044,3.6433 c 3.86995,3.8944 4.03307,4.11416 3.88321,5.23148 -0.18726,1.39616 -1.82158,2.27411 -3.07035,1.64936 -0.25326,-0.12671 -2.06864,-1.8322 -4.03416,-3.78999 l -3.57367,-3.55961 -3.50437,3.51458 c -1.92741,1.93303 -3.72947,3.63177 -4.00458,3.77499 -0.60397,0.31442 -1.3783,0.33371 -1.92625,0.048 z"
       id="path1" /></g></svg>
