<?xml version="1.0" encoding="UTF-8" standalone="no"?>
<!-- Created with Inkscape (http://www.inkscape.org/) -->

<svg
   width="188.89804mm"
   height="166.51837mm"
   viewBox="0 0 188.89804 166.51837"
   version="1.1"
   id="svg1"
   xml:space="preserve"
   inkscape:version="1.3 (0e150ed6c4, 2023-07-21)"
   sodipodi:docname="database.svg"
   xmlns:inkscape="http://www.inkscape.org/namespaces/inkscape"
   xmlns:sodipodi="http://sodipodi.sourceforge.net/DTD/sodipodi-0.dtd"
   xmlns="http://www.w3.org/2000/svg"
   xmlns:svg="http://www.w3.org/2000/svg"><sodipodi:namedview
     id="namedview1"
     pagecolor="#ffffff"
     bordercolor="#000000"
     borderopacity="0.25"
     inkscape:showpageshadow="2"
     inkscape:pageopacity="0.0"
     inkscape:pagecheckerboard="0"
     inkscape:deskcolor="#d1d1d1"
     inkscape:document-units="mm"
     inkscape:zoom="0.73139029"
     inkscape:cx="365.05817"
     inkscape:cy="419.0649"
     inkscape:window-width="1920"
     inkscape:window-height="1017"
     inkscape:window-x="-8"
     inkscape:window-y="-8"
     inkscape:window-maximized="1"
     inkscape:current-layer="layer1" /><defs
     id="defs1" /><g
     inkscape:label="Layer 1"
     inkscape:groupmode="layer"
     id="layer1"
     transform="translate(-8.2855049,-37.164706)"><path
       style="fill:#ffffff;fill-opacity:1"
       d="m 84.746454,203.53533 c -30.08745,-1.10758 -57.69833,-4.58875 -70.06937,-8.83432 -3.33197,-1.14348 -4.59991,-2.26263 -5.6800195,-5.01348 -0.744366,-1.89575 -0.81664,-4.87829 -0.584083,-24.10326 l 0.196263,-16.22496 1.35767,1.0326 c 1.6834395,1.28038 3.2809995,1.90067 7.8399495,3.04402 8.03953,2.01627 12.75218,2.7661 26.32605,4.18875 25.02627,2.62296 37.25283,3.4753 53.842713,3.75348 19.546973,0.32777 43.291443,-0.86742 61.515623,-3.09642 13.99533,-1.71177 19.13951,-2.62618 28.17391,-5.00809 5.24271,-1.38223 7.79788,-2.44126 8.7207,-3.61444 0.46653,-0.5931 0.48646,-0.14775 0.67755,15.13947 0.10828,8.66279 0.13945,17.44161 0.0692,19.50848 -0.1592,4.68799 -0.6652,6.23918 -2.6985,8.27247 -1.17408,1.17408 -1.69201,1.4665 -3.86191,2.18038 -12.28348,4.04119 -34.40095,6.99973 -63.75704,8.52843 -7.21437,0.37569 -34.258513,0.5344 -42.068756,0.24689 z m 2.381253,-48.85324 c -28.390079,-0.88495 -54.528179,-3.866 -69.165809,-7.88837 -5.95384,-1.6361 -7.42324,-2.57879 -8.8386295,-5.6704 -0.896212,-1.95759 -0.957367,-4.06107 -0.710763,-24.44732 l 0.197413,-16.31937 0.95243,0.83625 c 1.8584295,1.63173 5.2596995,2.77432 13.6739895,4.59355 5.29727,1.1453 9.24284,1.68929 21.95491,3.02697 24.15134,2.54143 36.78766,3.39902 53.445839,3.62724 23.723493,0.32502 46.776783,-1.05752 69.056253,-4.14141 8.2878,-1.14718 11.02682,-1.66966 18.03919,-3.44102 6.52434,-1.64807 9.4872,-2.77536 10.51975,-4.00248 l 0.61456,-0.73036 0.19672,15.73796 c 0.24198,19.35827 0.15574,22.69757 -0.63953,24.76242 -0.76259,1.98001 -2.55078,3.95004 -4.24829,4.68029 -3.71095,1.59641 -14.46767,3.94197 -24.87928,5.42507 -13.99887,1.99409 -29.15686,3.24778 -46.69896,3.86238 -6.51791,0.22835 -27.227493,0.28318 -33.469793,0.0886 z m -4.894789,-48.79091 c -27.97313,-1.07561 -54.19189,-4.426 -66.97486,-8.558459 -3.60405,-1.16511 -4.92515,-2.19119 -6.0522095,-4.700649 -0.991178,-2.20691 -1.044625,-3.86646 -0.793392,-24.635319 l 0.197362,-16.315269 0.74372,0.529574 c 9.7164895,6.918751 84.3054685,10.587452 142.0679215,6.98769 24.03565,-1.497904 41.78303,-4.313162 44.79662,-7.106066 l 0.64937,-0.60182 0.19642,15.713551 c 0.24367,19.494104 0.15877,22.663789 -0.66437,24.803559 -0.75834,1.97132 -2.50225,3.874159 -4.23291,4.618669 -8.29504,3.568429 -32.12102,7.126449 -58.6045,8.751619 -12.66856,0.77742 -37.894823,1.02949 -51.329172,0.51292 z m -5.82084,-49.737857 c -32.37323,-1.004215 -57.93619,-3.825227 -65.57967,-7.237075 -9.4264885,-4.207735 11.37375,-8.722499 49.44009,-10.731142 23.81114,-1.256439 56.116002,-1.362726 79.771882,-0.262459 27.8162,1.29377 48.38071,3.884994 54.67592,6.889417 2.95396,1.409796 2.87493,2.639938 -0.26251,4.086301 -7.61071,3.508545 -32.24555,6.204527 -66.45195,7.272353 -9.30713,0.290542 -42.022262,0.279512 -51.593762,-0.01739 z"
       id="path1"
       sodipodi:nodetypes="cssscsssssssscsssccsssscssssssscsssssssssscssscssssssssssssss" /></g></svg>
