<?xml version="1.0" encoding="UTF-8" standalone="no"?>
<!-- Created with Inkscape (http://www.inkscape.org/) -->

<svg
   width="58.072174mm"
   height="58.236046mm"
   viewBox="0 0 58.072174 58.236046"
   version="1.1"
   id="svg1"
   xml:space="preserve"
   inkscape:version="1.3 (0e150ed6c4, 2023-07-21)"
   sodipodi:docname="delete.svg"
   xmlns:inkscape="http://www.inkscape.org/namespaces/inkscape"
   xmlns:sodipodi="http://sodipodi.sourceforge.net/DTD/sodipodi-0.dtd"
   xmlns="http://www.w3.org/2000/svg"
   xmlns:svg="http://www.w3.org/2000/svg"><sodipodi:namedview
     id="namedview1"
     pagecolor="#ffffff"
     bordercolor="#000000"
     borderopacity="0.25"
     inkscape:showpageshadow="2"
     inkscape:pageopacity="0.0"
     inkscape:pagecheckerboard="0"
     inkscape:deskcolor="#d1d1d1"
     inkscape:document-units="mm"
     inkscape:zoom="0.73139029"
     inkscape:cx="110.74798"
     inkscape:cy="181.16182"
     inkscape:window-width="1920"
     inkscape:window-height="1017"
     inkscape:window-x="-8"
     inkscape:window-y="-8"
     inkscape:window-maximized="1"
     inkscape:current-layer="layer1" /><defs
     id="defs1" /><g
     inkscape:label="Layer 1"
     inkscape:groupmode="layer"
     id="layer1"
     transform="translate(-75.442726,-100.60408)"><path
       style="fill:#980000;fill-opacity:1"
       d="m 79.580036,158.47928 c -1.271521,-0.46014 -2.85783,-1.87457 -3.545923,-3.16171 l -0.591387,-1.10624 V 129.86966 105.528 l 0.615926,-1.2506 c 0.338759,-0.68783 0.993603,-1.56907 1.455209,-1.95832 1.868835,-1.57591 1.596711,-1.54647 15.107522,-1.6343 l 12.416157,-0.0807 8.28749,8.28749 8.28749,8.28749 v 3.7056 3.70561 l 1.88583,0.64203 c 5.95833,2.0285 10.00303,7.75159 10.01652,14.17294 0.0132,6.28506 -4.28407,12.2055 -10.25205,14.12446 -1.65276,0.53143 -1.87364,0.68668 -2.27669,1.60022 -0.58946,1.33603 -2.50359,3.07172 -3.77768,3.42549 -1.5287,0.42448 -36.440272,0.35386 -37.628414,-0.0761 z m 36.868114,-3.60098 c 0.37786,-0.41753 0.39957,-0.5454 0.10715,-0.63102 -0.20171,-0.0591 -1.13059,-0.30563 -2.06417,-0.54796 -0.93359,-0.24233 -2.36234,-0.76204 -3.175,-1.15492 -1.95973,-0.94742 -5.48879,-4.45581 -6.44058,-6.40286 -2.79353,-5.71466 -1.54777,-12.68544 3.09713,-17.33034 2.20131,-2.20131 5.60035,-3.95992 8.25732,-4.27219 l 1.41377,-0.16616 v -2.34482 -2.34483 h -5.30017 c -3.84922,0 -5.53324,-0.0977 -6.15156,-0.35678 -1.25876,-0.52748 -2.51788,-1.68341 -3.17811,-2.91764 -0.53846,-1.00661 -0.59033,-1.51746 -0.6691,-6.58977 l -0.0854,-5.49858 -10.822883,0.0746 -10.822887,0.0746 -0.733384,0.73362 -0.733383,0.73362 v 23.911 c 0,23.53855 0.0082,23.92016 0.529167,24.49917 0.291041,0.3235 0.767291,0.68564 1.058333,0.80476 0.291042,0.11912 8.339073,0.22413 17.884514,0.23335 16.969433,0.0164 17.365883,0.005 17.829243,-0.50688 z m 7.09667,-5.2518 c 3.16537,-1.55831 5.22302,-4.11782 6.1397,-7.63715 1.38671,-5.32394 -1.33201,-10.68254 -6.63995,-13.08739 -1.08134,-0.48992 -1.78884,-0.59147 -4.21018,-0.60434 -2.74172,-0.0146 -3.01406,0.0336 -4.69861,0.83159 -5.87963,2.78513 -8.35205,9.35555 -5.65495,15.02795 1.35559,2.851 3.55791,4.86015 6.53337,5.9603 1.16036,0.42904 1.95414,0.51733 4.10009,0.45607 2.39222,-0.0683 2.83997,-0.164 4.43053,-0.94703 z m -12.25105,-10.23184 v -1.71979 h 7.27604 7.27604 v 1.71979 1.71979 h -7.27604 -7.27604 z m 3.70416,-23.34656 c 0,-0.25943 -8.53513,-8.80031 -8.79439,-8.80031 -0.11079,0 -0.20144,1.43257 -0.20144,3.1835 0,5.34291 0.43847,5.78499 5.75469,5.80197 1.78263,0.006 3.24114,-0.0776 3.24114,-0.18516 z"
       id="path1" /></g></svg>
