<?xml version="1.0" encoding="UTF-8" standalone="no"?>
<!-- Created with Inkscape (http://www.inkscape.org/) -->

<svg
   width="36.744804mm"
   height="36.547146mm"
   viewBox="0 0 36.744804 36.547146"
   version="1.1"
   id="svg1"
   xml:space="preserve"
   inkscape:version="1.3 (0e150ed6c4, 2023-07-21)"
   sodipodi:docname="edit.svg"
   xmlns:inkscape="http://www.inkscape.org/namespaces/inkscape"
   xmlns:sodipodi="http://sodipodi.sourceforge.net/DTD/sodipodi-0.dtd"
   xmlns="http://www.w3.org/2000/svg"
   xmlns:svg="http://www.w3.org/2000/svg"><sodipodi:namedview
     id="namedview1"
     pagecolor="#ffffff"
     bordercolor="#000000"
     borderopacity="0.25"
     inkscape:showpageshadow="2"
     inkscape:pageopacity="0.0"
     inkscape:pagecheckerboard="0"
     inkscape:deskcolor="#d1d1d1"
     inkscape:document-units="mm"
     inkscape:zoom="0.73139029"
     inkscape:cx="123.05332"
     inkscape:cy="7.5199248"
     inkscape:window-width="1920"
     inkscape:window-height="1017"
     inkscape:window-x="-8"
     inkscape:window-y="-8"
     inkscape:window-maximized="1"
     inkscape:current-layer="layer1" /><defs
     id="defs1" /><g
     inkscape:label="Layer 1"
     inkscape:groupmode="layer"
     id="layer1"
     transform="translate(-72.443985,-146.3418)"><path
       style="fill:#ffffff;fill-opacity:1"
       d="m 73.967842,182.45661 c -1.592622,-0.8655 -1.575238,-0.65328 -1.496016,-18.26241 l 0.07217,-16.0412 0.988302,-0.9056 0.988302,-0.9056 h 9.721807 9.721806 l -2.370217,2.38125 -2.370217,2.38125 h -5.892496 -5.892496 v 13.49375 13.49375 H 90.800246 104.1617 v -5.89221 -5.8922 l 2.51355,-2.50309 2.51354,-2.50309 v 9.47979 c 0,10.42902 -0.0632,10.8882 -1.61004,11.68808 -1.09777,0.56768 -32.564841,0.556 -33.610906,-0.0125 z m 6.910527,-11.21158 c 0,-4.16212 0.156362,-4.42497 1.992299,-3.34903 1.581168,0.92662 3.83085,3.19291 4.682991,4.71756 0.638739,1.14283 0.651529,1.23666 0.221599,1.62574 -0.360838,0.32656 -1.12978,0.41291 -3.676577,0.41291 h -3.220312 z m 8.369592,-0.77817 c -1.160552,-1.58099 -3.849383,-4.11937 -4.986282,-4.70729 l -0.814947,-0.42142 7.431537,-7.43154 7.431536,-7.43153 1.00772,0.51305 c 1.294335,0.65897 4.276025,3.63756 5.030285,5.02505 l 0.58299,1.07243 -7.355753,7.35223 -7.355753,7.35224 z M 106.0431,153.88369 c -1.1191,-1.55832 -3.23151,-3.63062 -4.67665,-4.58784 l -1.14303,-0.75711 1.15881,-1.13729 c 1.12504,-1.10413 1.19733,-1.13272 2.48021,-0.98078 1.44174,0.17075 3.08253,0.90085 3.7949,1.6886 0.62432,0.69039 1.18312,2.10601 1.39114,3.5242 0.16827,1.14721 0.1324,1.23186 -0.98364,2.32159 l -1.15827,1.13098 z"
       id="path1" /></g></svg>
