<?xml version="1.0" encoding="UTF-8" standalone="no"?>
<!-- Created with Inkscape (http://www.inkscape.org/) -->

<svg
   width="36.744804mm"
   height="36.547146mm"
   viewBox="0 0 36.744804 36.547146"
   version="1.1"
   id="svg1"
   xml:space="preserve"
   inkscape:version="1.3 (0e150ed6c4, 2023-07-21)"
   sodipodi:docname="lock.svg"
   xmlns:inkscape="http://www.inkscape.org/namespaces/inkscape"
   xmlns:sodipodi="http://sodipodi.sourceforge.net/DTD/sodipodi-0.dtd"
   xmlns="http://www.w3.org/2000/svg"
   xmlns:svg="http://www.w3.org/2000/svg"><sodipodi:namedview
     id="namedview1"
     pagecolor="#ffffff"
     bordercolor="#000000"
     borderopacity="0.25"
     inkscape:showpageshadow="2"
     inkscape:pageopacity="0.0"
     inkscape:pagecheckerboard="0"
     inkscape:deskcolor="#d1d1d1"
     inkscape:document-units="mm"
     inkscape:zoom="2.9255612"
     inkscape:cx="85.453691"
     inkscape:cy="122.19878"
     inkscape:window-width="1920"
     inkscape:window-height="1017"
     inkscape:window-x="-8"
     inkscape:window-y="-8"
     inkscape:window-maximized="1"
     inkscape:current-layer="layer1" /><defs
     id="defs1" /><g
     inkscape:label="Layer 1"
     inkscape:groupmode="layer"
     id="layer1"
     transform="translate(-72.443985,-146.3418)"><path
       style="fill:#ffffff;stroke-width:0.587986;fill-opacity:1"
       d="m 78.226688,182.0798 c -0.847017,-0.46069 -0.842977,-0.41825 -0.89061,-9.34964 -0.0341,-6.39749 0.0012,-8.39256 0.155569,-8.86186 0.249165,-0.75605 1.030651,-1.31711 1.83455,-1.31711 h 0.577726 l 0.08609,-2.99475 c 0.09735,-3.38637 0.256697,-4.20032 1.195387,-6.10617 1.075585,-2.18378 2.747463,-3.855 4.906694,-4.90478 1.627538,-0.79129 2.917162,-1.08011 4.822712,-1.08011 1.922901,0 3.191668,0.28824 4.897274,1.11257 1.084163,0.52398 1.570421,0.89001 2.729848,2.05486 1.138908,1.14425 1.535672,1.67209 2.059292,2.73967 0.95936,1.95604 1.1208,2.85582 1.12349,6.26175 l 0.002,2.91696 0.73897,5.8e-4 c 0.46648,3.7e-4 0.92883,0.11637 1.25392,0.31455 0.98637,0.60137 0.97785,0.5111 0.92916,9.84309 -0.0405,7.75679 -0.066,8.4649 -0.31842,8.83637 -0.15092,0.22212 -0.45175,0.48465 -0.66849,0.5834 -0.28758,0.13104 -3.723814,0.17786 -12.715772,0.17332 -10.222202,-0.005 -12.389512,-0.0431 -12.719689,-0.2227 z m 15.402509,-8.7083 3.801003,-3.80339 -0.69077,-0.7675 c -0.379928,-0.42213 -0.792029,-0.81389 -0.915789,-0.87059 -0.154763,-0.0709 -1.137828,0.80878 -3.148992,2.81785 l -2.923977,2.92095 -1.091572,-1.08322 -1.091565,-1.0832 -0.87397,0.87397 -0.873965,0.87396 1.925318,1.95802 c 1.058927,1.0769 1.960856,1.95992 2.004296,1.96227 0.04345,0.002 1.789429,-1.70726 3.879983,-3.79912 z m 4.206221,-13.50391 c -0.002,-2.96706 -0.19834,-4.17508 -0.879627,-5.42682 -2.611844,-4.79882 -9.68823,-4.71984 -12.16539,0.13578 -0.642874,1.26015 -0.798513,2.27507 -0.798513,5.20705 v 2.76759 h 6.92292 6.92292 z"
       id="path1" /></g></svg>
