<?xml version="1.0" encoding="UTF-8" standalone="no"?>
<!-- Created with Inkscape (http://www.inkscape.org/) -->

<svg
   width="36.639107mm"
   height="36.640869mm"
   viewBox="0 0 36.639106 36.640869"
   version="1.1"
   id="svg1"
   xml:space="preserve"
   inkscape:version="1.3 (0e150ed6c4, 2023-07-21)"
   sodipodi:docname="maximize.svg"
   xmlns:inkscape="http://www.inkscape.org/namespaces/inkscape"
   xmlns:sodipodi="http://sodipodi.sourceforge.net/DTD/sodipodi-0.dtd"
   xmlns="http://www.w3.org/2000/svg"
   xmlns:svg="http://www.w3.org/2000/svg"><sodipodi:namedview
     id="namedview1"
     pagecolor="#ffffff"
     bordercolor="#000000"
     borderopacity="0.25"
     inkscape:showpageshadow="2"
     inkscape:pageopacity="0.0"
     inkscape:pagecheckerboard="0"
     inkscape:deskcolor="#d1d1d1"
     inkscape:document-units="mm"
     inkscape:zoom="1.0343421"
     inkscape:cx="185.62524"
     inkscape:cy="74.926854"
     inkscape:window-width="1920"
     inkscape:window-height="1017"
     inkscape:window-x="1912"
     inkscape:window-y="-8"
     inkscape:window-maximized="1"
     inkscape:current-layer="layer1" /><defs
     id="defs1" /><g
     inkscape:label="Layer 1"
     inkscape:groupmode="layer"
     id="layer1"
     transform="translate(-137.78016,-97.321436)"><path
       style="fill:#000000;stroke-width:0.241124"
       d="m 146.62605,127.48257 c -0.74675,-0.23679 -1.37606,-0.78465 -1.70922,-1.48802 l -0.2047,-0.43215 -0.0184,-3.18987 c -0.0206,-3.58048 -0.0258,-3.53331 0.43228,-3.94714 0.50934,-0.46017 1.25403,-0.4717 1.76021,-0.0273 0.45524,0.3997 0.4381,0.27194 0.47348,3.52781 l 0.0319,2.93468 2.93468,0.0319 c 3.25587,0.0354 3.12811,0.0182 3.52781,0.47347 0.58085,0.66155 0.34526,1.71896 -0.46498,2.08704 -0.23652,0.10745 -0.49066,0.11596 -3.38182,0.11331 -2.34153,-0.002 -3.19012,-0.0232 -3.38126,-0.0838 z m 12.43996,-0.0284 c -0.81098,-0.37221 -1.04578,-1.42674 -0.46498,-2.08824 0.3997,-0.45523 0.27193,-0.43808 3.52781,-0.47347 l 2.93468,-0.0319 0.0319,-2.93468 c 0.0354,-3.25587 0.0183,-3.12811 0.47348,-3.52781 0.50619,-0.44444 1.25088,-0.43291 1.76022,0.0273 0.45806,0.41383 0.4529,0.36666 0.43227,3.94714 l -0.0184,3.18987 -0.20471,0.43216 c -0.26891,0.56772 -0.77314,1.07195 -1.34086,1.34086 l -0.43216,0.20471 -3.22177,0.0158 c -3.01242,0.0147 -3.23839,0.008 -3.47751,-0.10163 z m -13.51656,-13.56481 c -0.13597,-0.0484 -0.34376,-0.18168 -0.46174,-0.29604 -0.41714,-0.4043 -0.41435,-0.37664 -0.39396,-3.91656 l 0.0184,-3.18987 0.20471,-0.43216 c 0.26892,-0.56772 0.77314,-1.07195 1.34087,-1.34086 l 0.43215,-0.20471 3.18987,-0.0184 c 3.58048,-0.0206 3.53331,-0.0258 3.94714,0.43228 0.46017,0.50934 0.4717,1.25403 0.0273,1.76022 -0.3997,0.45523 -0.27194,0.43808 -3.52781,0.47348 l -2.93468,0.0319 -0.0319,2.93469 c -0.0354,3.25587 -0.0182,3.12811 -0.47348,3.52781 -0.36504,0.32051 -0.85898,0.40853 -1.33679,0.23821 z m 20.416,2.5e-4 c -0.28013,-0.0999 -0.57652,-0.35904 -0.73218,-0.64023 -0.093,-0.16803 -0.10984,-0.54965 -0.13785,-3.12608 l -0.0319,-2.93468 -2.93468,-0.0319 c -3.25588,-0.0354 -3.12811,-0.0183 -3.52781,-0.47348 -0.44444,-0.50618 -0.43292,-1.25087 0.0273,-1.76021 0.41386,-0.45811 0.36628,-0.4529 3.95057,-0.43228 l 3.19331,0.0184 0.48599,0.24026 c 0.58169,0.28756 0.99762,0.71496 1.28725,1.32278 l 0.19761,0.41468 0.0184,3.18988 c 0.0207,3.58047 0.0258,3.53331 -0.43227,3.94714 -0.38242,0.3455 -0.87221,0.44094 -1.36368,0.26574 z"
       id="path2" /></g></svg>
