<?xml version="1.0" encoding="UTF-8" standalone="no"?>
<!-- Created with Inkscape (http://www.inkscape.org/) -->

<svg
   width="127mm"
   height="93.003647mm"
   viewBox="0 0 127 93.003647"
   version="1.1"
   id="svg1"
   xml:space="preserve"
   inkscape:version="1.3 (0e150ed6c4, 2023-07-21)"
   sodipodi:docname="measurement.svg"
   xmlns:inkscape="http://www.inkscape.org/namespaces/inkscape"
   xmlns:sodipodi="http://sodipodi.sourceforge.net/DTD/sodipodi-0.dtd"
   xmlns="http://www.w3.org/2000/svg"
   xmlns:svg="http://www.w3.org/2000/svg"><sodipodi:namedview
     id="namedview1"
     pagecolor="#ffffff"
     bordercolor="#000000"
     borderopacity="0.25"
     inkscape:showpageshadow="2"
     inkscape:pageopacity="0.0"
     inkscape:pagecheckerboard="0"
     inkscape:deskcolor="#d1d1d1"
     inkscape:document-units="mm"
     inkscape:zoom="0.73139029"
     inkscape:cx="117.58428"
     inkscape:cy="275.5027"
     inkscape:window-width="1920"
     inkscape:window-height="1017"
     inkscape:window-x="-8"
     inkscape:window-y="-8"
     inkscape:window-maximized="1"
     inkscape:current-layer="layer1" /><defs
     id="defs1" /><g
     inkscape:label="Layer 1"
     inkscape:groupmode="layer"
     id="layer1"
     transform="translate(-73.700569,-75.483101)"><path
       style="fill:#ffffff;fill-opacity:1"
       d="m 143.86268,168.10496 c -2.04565,-1.04297 -1.60778,0.70101 -8.58636,-34.1985 -3.52444,-17.62559 -6.46999,-32.04653 -6.54564,-32.04653 -0.0757,0 -1.07448,4.73274 -2.21961,10.51719 -1.14512,5.78446 -2.26129,10.91087 -2.48038,11.39202 -1.26731,2.78329 -5.21836,3.19868 -7.05362,0.74158 -0.33795,-0.45246 -1.31222,-2.93985 -2.16504,-5.52753 -1.18145,-3.58485 -1.59434,-4.56112 -1.73446,-4.10104 -0.10113,0.33211 -1.38831,7.92617 -2.86039,16.8757 -1.47208,8.94953 -2.87252,16.73015 -3.11209,17.29026 -1.25605,2.93658 -5.15675,3.37673 -7.119561,0.80335 -0.63123,-0.82758 -0.84212,-2.06693 -3.42253,-20.11308 -1.51242,-10.57713 -2.78444,-19.26573 -2.82672,-19.30801 -0.0423,-0.0423 -0.83256,2.96105 -1.75618,6.67405 -1.52312,6.12304 -1.75809,6.83445 -2.5263,7.64899 -0.46584,0.49394 -1.17254,1.02185 -1.57045,1.17313 -0.43186,0.16419 -3.43609,0.27506 -7.45313,0.27506 h -6.72965 v -4.23333 -4.23333 h 4.69861 4.6986 l 3.9371,-15.76283 c 3.72805,-14.925924 3.98193,-15.810374 4.7816,-16.658274 1.90966,-2.02482 4.72446,-1.89105 6.39879,0.30411 0.62696,0.82198 0.82181,1.9308 2.887861,16.433084 1.21854,8.55339 2.29655,15.96833 2.39558,16.47766 0.13528,0.69583 0.69161,-2.12011 2.2379,-11.32762 1.8957,-11.288124 2.11419,-12.327524 2.77287,-13.191104 1.67167,-2.19167 4.91074,-2.2162 6.53131,-0.0495 0.36953,0.49408 1.40966,3.14731 2.34477,5.9812 0.92435,2.801284 1.74403,5.093234 1.82152,5.093234 0.0775,0 1.31647,-5.923364 2.75329,-13.163024 1.43681,-7.23966 2.7915,-13.55669 3.01041,-14.03785 0.21891,-0.48116 0.81847,-1.19553 1.33237,-1.5875 1.33453,-1.0179 3.52698,-1.0179 4.86152,0 0.51389,0.39197 1.11313,1.10634 1.33164,1.5875 0.21851,0.48116 3.24096,15.13257 6.71656,32.558684 3.4756,17.42612 6.38135,31.68385 6.45722,31.68385 0.0759,0 1.07486,-4.73273 2.21999,-10.51718 1.14512,-5.78446 2.26129,-10.91087 2.48038,-11.39202 0.92947,-2.04133 3.69792,-3.00703 5.61553,-1.95884 1.40568,0.76836 1.95705,1.80692 3.6159,6.81087 0.8382,2.52843 1.5654,4.55574 1.616,4.50513 0.0506,-0.0506 1.38909,-7.86762 2.9744,-17.37114 2.19959,-13.185954 2.99876,-17.435014 3.37366,-17.937144 1.79537,-2.4047 5.06572,-2.47007 6.84538,-0.13682 0.62545,0.82001 0.84543,2.11214 3.4245,20.115044 1.51586,10.58131 2.78981,19.27245 2.831,19.31364 0.0412,0.0412 0.83059,-2.96302 1.75421,-6.67602 1.52313,-6.12304 1.75809,-6.83445 2.5263,-7.64899 0.46585,-0.49394 1.17255,-1.02185 1.57046,-1.17313 0.43185,-0.16419 3.43608,-0.27506 7.45312,-0.27506 h 6.72965 v 4.23333 4.23333 h -4.6986 -4.69861 l -3.93824,15.76744 c -4.24538,16.99708 -4.22209,16.92999 -6.15672,17.73833 -1.81025,0.75637 -3.80758,0.20409 -5.02252,-1.38878 -0.62696,-0.82199 -0.82182,-1.9308 -2.88786,-16.43308 -1.21854,-8.55339 -2.29655,-15.96833 -2.39558,-16.47766 -0.13529,-0.69583 -0.69161,2.12011 -2.2379,11.32762 -1.8957,11.28812 -2.11419,12.32752 -2.77287,13.19109 -1.67167,2.19167 -4.91074,2.21621 -6.53131,0.0495 -0.36954,-0.49407 -1.40966,-3.1473 -2.34477,-5.9812 -0.92435,-2.80127 -1.74403,-5.09323 -1.82152,-5.09323 -0.0775,0 -1.31648,5.92336 -2.75329,13.16302 -1.43681,7.23966 -2.7915,13.5567 -3.01041,14.03785 -0.90768,1.99507 -3.64866,2.9809 -5.56769,2.00249 z"
       id="path1" /></g></svg>
