<?xml version="1.0" encoding="UTF-8" standalone="no"?>
<!-- Created with Inkscape (http://www.inkscape.org/) -->

<svg
   width="135.34497mm"
   height="135.3681mm"
   viewBox="0 0 135.34497 135.3681"
   version="1.1"
   id="svg1"
   xml:space="preserve"
   inkscape:version="1.3 (0e150ed6c4, 2023-07-21)"
   sodipodi:docname="plus.svg"
   xmlns:inkscape="http://www.inkscape.org/namespaces/inkscape"
   xmlns:sodipodi="http://sodipodi.sourceforge.net/DTD/sodipodi-0.dtd"
   xmlns="http://www.w3.org/2000/svg"
   xmlns:svg="http://www.w3.org/2000/svg"><sodipodi:namedview
     id="namedview1"
     pagecolor="#ffffff"
     bordercolor="#000000"
     borderopacity="0.25"
     inkscape:showpageshadow="2"
     inkscape:pageopacity="0.0"
     inkscape:pagecheckerboard="0"
     inkscape:deskcolor="#d1d1d1"
     inkscape:document-units="mm"
     inkscape:zoom="0.73139029"
     inkscape:cx="277.55359"
     inkscape:cy="343.86565"
     inkscape:window-width="1920"
     inkscape:window-height="1017"
     inkscape:window-x="-8"
     inkscape:window-y="-8"
     inkscape:window-maximized="1"
     inkscape:current-layer="layer1" /><defs
     id="defs1" /><g
     inkscape:label="Layer 1"
     inkscape:groupmode="layer"
     id="layer1"
     transform="translate(-31.448098,-57.132634)"><path
       style="fill:#ffffff;fill-opacity:1;stroke-width:0.756814"
       d="m 95.180998,176.04353 c -17.757876,-1.4607 -33.509841,-12.05072 -41.547764,-27.93249 -4.86718,-9.61685 -6.539251,-19.89165 -4.979177,-30.59682 2.387738,-16.38459 12.698294,-30.690994 27.527986,-38.19645 9.61684,-4.86718 19.891648,-6.539251 30.596817,-4.979177 16.38459,2.387738 30.69099,12.698294 38.19645,27.527987 4.86718,9.61684 6.53925,19.89164 4.97918,30.59682 -2.42478,16.63878 -12.95418,31.04399 -28.12317,38.47517 -3.6488,1.78752 -6.00832,2.67593 -9.53446,3.58994 -5.83341,1.51208 -11.28511,1.99464 -17.115862,1.51502 z m 7.827722,-6.81125 c 15.68155,-1.34283 29.27404,-10.68879 36.24911,-24.92429 6.46592,-13.19636 5.85675,-28.89398 -1.61771,-41.68612 -8.48803,-14.526818 -24.74166,-23.159522 -41.273754,-21.921512 -14.297488,1.070669 -26.403548,8.182085 -34.28447,20.139592 -6.925974,10.50859 -8.974984,23.90686 -5.529944,36.15974 5.295499,18.83436 22.618126,32.15488 42.1516,32.4132 1.046258,0.0138 2.983578,-0.0674 4.305168,-0.18061 z M 97.602236,154.5391 c -0.440534,-0.26509 -0.981179,-0.78236 -1.201442,-1.14949 -0.386975,-0.64498 -0.402421,-1.07774 -0.457873,-12.82479 l -0.05737,-12.15727 -12.157279,-0.0574 c -12.130198,-0.0573 -12.158853,-0.0584 -12.865744,-0.49803 -2.079041,-1.29311 -2.079041,-4.43353 0,-5.72664 0.706891,-0.43967 0.735546,-0.44078 12.865744,-0.49804 l 12.157279,-0.0574 0.05737,-12.15727 c 0.05729,-12.130197 0.05835,-12.15885 0.498037,-12.865737 1.2931,-2.079044 4.433532,-2.079044 5.726632,0 0.43967,0.706887 0.44078,0.73554 0.49804,12.865737 l 0.0574,12.15727 12.15727,0.0574 c 12.13019,0.0573 12.15885,0.0584 12.86574,0.49804 0.92237,0.57369 1.5943,1.78046 1.5943,2.86332 0,1.08286 -0.67193,2.28963 -1.5943,2.86332 -0.70689,0.43966 -0.73555,0.44077 -12.86574,0.49803 l -12.15727,0.0574 -0.0574,12.15727 c -0.0573,12.13021 -0.0583,12.15886 -0.49804,12.86576 -0.95385,1.5336 -3.023739,2.03619 -4.565354,1.10852 z"
       id="path1" /></g></svg>
